<mxfile host="65bd71144e">
    <diagram id="KwI3-jwrs-vpAAGOy0-T" name="Page-1">
        <mxGraphModel dx="792" dy="443" grid="1" gridSize="10" guides="1" tooltips="1" connect="1" arrows="1" fold="1" page="1" pageScale="1" pageWidth="850" pageHeight="1100" math="0" shadow="0">
            <root>
                <mxCell id="0"/>
                <mxCell id="1" parent="0"/>
                <mxCell id="61" value="" style="rounded=0;whiteSpace=wrap;html=1;strokeColor=none;" vertex="1" parent="1">
                    <mxGeometry x="153" y="190" width="650" height="320" as="geometry"/>
                </mxCell>
                <mxCell id="52" value="Usuários / Atendimento" style="rounded=0;whiteSpace=wrap;html=1;fontSize=8;fontColor=#000000;fillColor=none;strokeColor=#48B281;verticalAlign=top;dashed=1;" parent="1" vertex="1">
                    <mxGeometry x="590" y="240" width="160" height="240.73" as="geometry"/>
                </mxCell>
                <mxCell id="50" value="Sistema de Recomendação" style="rounded=0;whiteSpace=wrap;html=1;fontSize=8;fontColor=#000000;fillColor=none;strokeColor=#48B281;verticalAlign=top;dashed=1;" parent="1" vertex="1">
                    <mxGeometry x="408" y="240" width="140" height="240.73" as="geometry"/>
                </mxCell>
                <mxCell id="45" value="Ambiente Externo" style="rounded=0;whiteSpace=wrap;html=1;fontSize=8;fontColor=#000000;fillColor=none;strokeColor=#48B281;verticalAlign=top;dashed=1;" parent="1" vertex="1">
                    <mxGeometry x="210" y="240" width="150" height="240" as="geometry"/>
                </mxCell>
                <mxCell id="13" style="edgeStyle=orthogonalEdgeStyle;html=1;fontSize=9;fontColor=#000000;strokeColor=#48B281;endArrow=classicThin;endFill=1;entryX=-0.025;entryY=0.52;entryDx=0;entryDy=0;entryPerimeter=0;" parent="1" source="2" target="30" edge="1">
                    <mxGeometry relative="1" as="geometry">
                        <mxPoint x="480" y="293" as="targetPoint"/>
                    </mxGeometry>
                </mxCell>
                <mxCell id="2" value="Integrador APIs" style="rounded=1;whiteSpace=wrap;html=1;fillColor=#48B281;fontStyle=0;fontColor=#FFFFFF;rotation=-90;fontSize=10;" parent="1" vertex="1">
                    <mxGeometry x="270" y="350.73" width="240" height="20" as="geometry"/>
                </mxCell>
                <mxCell id="27" style="edgeStyle=none;html=1;entryX=0.5;entryY=0;entryDx=0;entryDy=0;strokeColor=#48B281;fontSize=9;fontColor=#000000;endArrow=classicThin;endFill=1;" parent="1" source="4" target="2" edge="1">
                    <mxGeometry relative="1" as="geometry"/>
                </mxCell>
                <mxCell id="4" value="&lt;span style=&quot;color: rgb(0, 0, 0); font-size: 8px;&quot;&gt;Open Finance&lt;/span&gt;" style="aspect=fixed;html=1;points=[];align=center;image;fontSize=8;image=img/lib/azure2/app_services/API_Management_Services.svg;fontColor=#FFFFFF;fillColor=#48B281;" parent="1" vertex="1">
                    <mxGeometry x="301.75" y="348" width="27.08" height="25" as="geometry"/>
                </mxCell>
                <mxCell id="28" style="edgeStyle=none;html=1;entryX=0.25;entryY=0;entryDx=0;entryDy=0;strokeColor=#48B281;fontSize=9;fontColor=#000000;endArrow=classicThin;endFill=1;" parent="1" source="6" target="2" edge="1">
                    <mxGeometry relative="1" as="geometry"/>
                </mxCell>
                <mxCell id="6" value="&lt;span style=&quot;color: rgb(0, 0, 0); font-size: 8px;&quot;&gt;Open Finance&lt;/span&gt;" style="aspect=fixed;html=1;points=[];align=center;image;fontSize=8;image=img/lib/azure2/app_services/API_Management_Services.svg;fontColor=#FFFFFF;fillColor=#48B281;" parent="1" vertex="1">
                    <mxGeometry x="301.75" y="408" width="27.08" height="25" as="geometry"/>
                </mxCell>
                <mxCell id="26" style="edgeStyle=none;html=1;entryX=0.75;entryY=0;entryDx=0;entryDy=0;strokeColor=#48B281;fontSize=9;fontColor=#000000;endArrow=classicThin;endFill=1;" parent="1" source="7" target="2" edge="1">
                    <mxGeometry relative="1" as="geometry"/>
                </mxCell>
                <mxCell id="7" value="&lt;font color=&quot;#000000&quot; style=&quot;font-size: 8px;&quot;&gt;Open Finance&lt;/font&gt;" style="aspect=fixed;html=1;points=[];align=center;image;fontSize=8;image=img/lib/azure2/app_services/API_Management_Services.svg;fontColor=#FFFFFF;fillColor=#48B281;" parent="1" vertex="1">
                    <mxGeometry x="301.75" y="288" width="26.97" height="24.9" as="geometry"/>
                </mxCell>
                <mxCell id="21" style="edgeStyle=none;html=1;entryX=-0.054;entryY=0.5;entryDx=0;entryDy=0;entryPerimeter=0;fontSize=8;fontColor=#000000;strokeColor=#48B281;endArrow=classicThin;endFill=1;" parent="1" source="8" target="7" edge="1">
                    <mxGeometry relative="1" as="geometry"/>
                </mxCell>
                <mxCell id="8" value="&lt;font color=&quot;#000000&quot; style=&quot;font-size: 8px;&quot;&gt;Instituição A&lt;/font&gt;" style="html=1;verticalLabelPosition=bottom;align=center;labelBackgroundColor=#ffffff;verticalAlign=top;strokeWidth=2;strokeColor=#0080F0;shadow=0;dashed=0;shape=mxgraph.ios7.icons.data;fontColor=#FFFFFF;fillColor=#FFFFFF;fontSize=8;" parent="1" vertex="1">
                    <mxGeometry x="227.59" y="288.22499999999997" width="22.41" height="24.45" as="geometry"/>
                </mxCell>
                <mxCell id="25" style="edgeStyle=none;html=1;strokeColor=#48B281;fontSize=8;fontColor=#000000;endArrow=classicThin;endFill=1;" parent="1" source="9" target="4" edge="1">
                    <mxGeometry relative="1" as="geometry"/>
                </mxCell>
                <mxCell id="9" value="&lt;span style=&quot;color: rgb(0, 0, 0); font-size: 8px;&quot;&gt;Instituição B&lt;/span&gt;" style="html=1;verticalLabelPosition=bottom;align=center;labelBackgroundColor=#ffffff;verticalAlign=top;strokeWidth=2;strokeColor=#0080F0;shadow=0;dashed=0;shape=mxgraph.ios7.icons.data;fontColor=#FFFFFF;fillColor=#FFFFFF;fontSize=8;" parent="1" vertex="1">
                    <mxGeometry x="227.59" y="348.45" width="22.41" height="24.55" as="geometry"/>
                </mxCell>
                <mxCell id="23" style="edgeStyle=none;html=1;fontSize=8;fontColor=#000000;strokeColor=#48B281;endArrow=classicThin;endFill=1;" parent="1" source="10" target="6" edge="1">
                    <mxGeometry relative="1" as="geometry"/>
                </mxCell>
                <mxCell id="10" value="&lt;span style=&quot;color: rgb(0, 0, 0); font-size: 8px;&quot;&gt;Instituição C&lt;/span&gt;" style="html=1;verticalLabelPosition=bottom;align=center;labelBackgroundColor=#ffffff;verticalAlign=top;strokeWidth=2;strokeColor=#0080F0;shadow=0;dashed=0;shape=mxgraph.ios7.icons.data;fontColor=#FFFFFF;fillColor=#FFFFFF;fontSize=8;" parent="1" vertex="1">
                    <mxGeometry x="227.59" y="408.45" width="22.41" height="24.55" as="geometry"/>
                </mxCell>
                <mxCell id="29" value="&lt;font style=&quot;font-size: 8px;&quot;&gt;Filtro Colaborativo&lt;/font&gt;" style="aspect=fixed;html=1;points=[];align=center;image;fontSize=8;image=img/lib/azure2/app_services/App_Services.svg;fontColor=#000000;fillColor=#FFFFFF;" parent="1" vertex="1">
                    <mxGeometry x="463.62" y="431" width="24" height="24" as="geometry"/>
                </mxCell>
                <mxCell id="56" style="edgeStyle=orthogonalEdgeStyle;html=1;strokeColor=#48B281;fontSize=17;fontColor=#000000;endArrow=classicThin;endFill=1;" parent="1" source="30" target="55" edge="1">
                    <mxGeometry relative="1" as="geometry"/>
                </mxCell>
                <mxCell id="30" value="&lt;span style=&quot;color: rgb(0, 0, 0);&quot;&gt;Quantum Finance&lt;/span&gt;&lt;br style=&quot;border-color: var(--border-color); color: rgb(0, 0, 0);&quot;&gt;&lt;span style=&quot;color: rgb(0, 0, 0);&quot;&gt;Open Finance&amp;nbsp;&lt;/span&gt;" style="html=1;verticalLabelPosition=bottom;align=center;labelBackgroundColor=#ffffff;verticalAlign=top;strokeWidth=2;strokeColor=#0080F0;shadow=0;dashed=0;shape=mxgraph.ios7.icons.data;fontColor=#FFFFFF;fillColor=#FFFFFF;fontSize=8;" parent="1" vertex="1">
                    <mxGeometry x="464.41" y="287.995" width="22.41" height="24.45" as="geometry"/>
                </mxCell>
                <mxCell id="35" style="edgeStyle=orthogonalEdgeStyle;html=1;strokeColor=#48B281;fontSize=8;fontColor=#000000;endArrow=classicThin;endFill=1;" parent="1" source="33" target="29" edge="1">
                    <mxGeometry relative="1" as="geometry"/>
                </mxCell>
                <mxCell id="33" value="Backend For Frontend API (BFF)" style="rounded=1;whiteSpace=wrap;html=1;fillColor=#48B281;fontStyle=0;fontColor=#FFFFFF;rotation=-90;fontSize=10;" parent="1" vertex="1">
                    <mxGeometry x="450" y="350.73" width="240" height="20" as="geometry"/>
                </mxCell>
                <mxCell id="48" style="edgeStyle=orthogonalEdgeStyle;html=1;entryX=0.25;entryY=1;entryDx=0;entryDy=0;strokeColor=#48B281;fontSize=8;fontColor=#000000;endArrow=classicThin;endFill=1;" parent="1" source="36" target="33" edge="1">
                    <mxGeometry relative="1" as="geometry"/>
                </mxCell>
                <mxCell id="36" value="Internet Banking" style="verticalLabelPosition=bottom;html=1;verticalAlign=top;align=center;strokeColor=none;fillColor=#48B281;shape=mxgraph.azure.laptop;pointerEvents=1;fontSize=8;fontColor=#000000;" parent="1" vertex="1">
                    <mxGeometry x="648.24" y="380" width="33.33" height="20" as="geometry"/>
                </mxCell>
                <mxCell id="49" style="edgeStyle=orthogonalEdgeStyle;html=1;exitX=0;exitY=0.5;exitDx=0;exitDy=0;exitPerimeter=0;entryX=0.25;entryY=1;entryDx=0;entryDy=0;strokeColor=#48B281;fontSize=8;fontColor=#000000;endArrow=classicThin;endFill=1;" parent="1" source="37" target="33" edge="1">
                    <mxGeometry relative="1" as="geometry">
                        <Array as="points">
                            <mxPoint x="630" y="446"/>
                            <mxPoint x="630" y="421"/>
                        </Array>
                    </mxGeometry>
                </mxCell>
                <mxCell id="37" value="Mobile APP" style="verticalLabelPosition=bottom;html=1;verticalAlign=top;align=center;strokeColor=none;fillColor=#48B281;shape=mxgraph.azure.mobile;pointerEvents=1;fontSize=8;fontColor=#000000;" parent="1" vertex="1">
                    <mxGeometry x="710.91" y="426" width="21" height="30" as="geometry"/>
                </mxCell>
                <mxCell id="60" style="edgeStyle=orthogonalEdgeStyle;html=1;entryX=0.5;entryY=1;entryDx=0;entryDy=0;strokeColor=#48B281;endArrow=classicThin;endFill=1;" edge="1" parent="1" source="38" target="33">
                    <mxGeometry relative="1" as="geometry"/>
                </mxCell>
                <mxCell id="38" value="WhatsApp" style="dashed=0;outlineConnect=0;html=1;align=center;labelPosition=center;verticalLabelPosition=bottom;verticalAlign=top;shape=mxgraph.weblogos.whatsapp;fillColor=#00E676;strokeColor=#dddddd;fontSize=8;fontColor=#000000;" parent="1" vertex="1">
                    <mxGeometry x="708.7400000000001" y="329" width="23.17" height="23.17" as="geometry"/>
                </mxCell>
                <mxCell id="46" style="edgeStyle=orthogonalEdgeStyle;html=1;entryX=0.5;entryY=1;entryDx=0;entryDy=0;strokeColor=#48B281;fontSize=8;fontColor=#000000;endArrow=classicThin;endFill=1;" parent="1" source="39" target="33" edge="1">
                    <mxGeometry relative="1" as="geometry"/>
                </mxCell>
                <mxCell id="39" value="Central de &lt;br&gt;Atendimento" style="sketch=0;pointerEvents=1;shadow=0;dashed=0;html=1;strokeColor=none;fillColor=#48B281;labelPosition=center;verticalLabelPosition=bottom;verticalAlign=top;outlineConnect=0;align=center;shape=mxgraph.office.users.call_center_agent;fontSize=8;fontColor=#000000;" parent="1" vertex="1">
                    <mxGeometry x="652.36" y="274" width="25.09" height="30" as="geometry"/>
                </mxCell>
                <mxCell id="57" style="edgeStyle=orthogonalEdgeStyle;html=1;strokeColor=#48B281;fontSize=17;fontColor=#000000;endArrow=classicThin;endFill=1;" parent="1" source="55" target="29" edge="1">
                    <mxGeometry relative="1" as="geometry"/>
                </mxCell>
                <mxCell id="55" value="&lt;font style=&quot;font-size: 8px;&quot;&gt;Modelo KNN&lt;/font&gt;" style="aspect=fixed;html=1;points=[];align=center;image;fontSize=8;image=img/lib/azure2/app_services/App_Services.svg;fontColor=#000000;fillColor=#FFFFFF;" parent="1" vertex="1">
                    <mxGeometry x="464.41" y="365" width="24" height="24" as="geometry"/>
                </mxCell>
            </root>
        </mxGraphModel>
    </diagram>
</mxfile>